<mxfile host="app.diagrams.net" agent="Mozilla/5.0 (Windows NT 10.0; Win64; x64) AppleWebKit/537.36 (KHTML, like Gecko) Chrome/139.0.0.0 Safari/537.36" version="28.1.1">
  <diagram name="Page-1" id="ifm0Bw4K4dQbtXaDDwRL">
    <mxGraphModel dx="1163" dy="1800" grid="1" gridSize="10" guides="1" tooltips="1" connect="1" arrows="1" fold="1" page="1" pageScale="1" pageWidth="827" pageHeight="1169" math="0" shadow="0">
      <root>
        <mxCell id="0" />
        <mxCell id="1" parent="0" />
        <mxCell id="o8o4saT7E8EeV9QDNvvc-3" value="" style="edgeStyle=orthogonalEdgeStyle;rounded=0;orthogonalLoop=1;jettySize=auto;html=1;fillColor=#FF0000;" edge="1" parent="1" source="o8o4saT7E8EeV9QDNvvc-1" target="o8o4saT7E8EeV9QDNvvc-2">
          <mxGeometry relative="1" as="geometry" />
        </mxCell>
        <mxCell id="o8o4saT7E8EeV9QDNvvc-1" value="START" style="ellipse;whiteSpace=wrap;html=1;fillColor=#f8cecc;strokeColor=#b85450;" vertex="1" parent="1">
          <mxGeometry x="364" y="-1060" width="120" height="80" as="geometry" />
        </mxCell>
        <mxCell id="o8o4saT7E8EeV9QDNvvc-15" value="" style="edgeStyle=orthogonalEdgeStyle;rounded=0;orthogonalLoop=1;jettySize=auto;html=1;" edge="1" parent="1" source="o8o4saT7E8EeV9QDNvvc-2" target="o8o4saT7E8EeV9QDNvvc-14">
          <mxGeometry relative="1" as="geometry" />
        </mxCell>
        <mxCell id="o8o4saT7E8EeV9QDNvvc-2" value="Get the URL of the website as input" style="rounded=1;whiteSpace=wrap;html=1;fillColor=#fff2cc;strokeColor=#d6b656;" vertex="1" parent="1">
          <mxGeometry x="364" y="-930" width="120" height="60" as="geometry" />
        </mxCell>
        <mxCell id="o8o4saT7E8EeV9QDNvvc-26" value="" style="edgeStyle=orthogonalEdgeStyle;rounded=0;orthogonalLoop=1;jettySize=auto;html=1;" edge="1" parent="1" source="o8o4saT7E8EeV9QDNvvc-4" target="o8o4saT7E8EeV9QDNvvc-25">
          <mxGeometry relative="1" as="geometry" />
        </mxCell>
        <mxCell id="o8o4saT7E8EeV9QDNvvc-4" value="Scrape the HTML files of the website" style="rounded=1;whiteSpace=wrap;html=1;fillColor=#fff2cc;strokeColor=#d6b656;" vertex="1" parent="1">
          <mxGeometry x="364.5" y="-700" width="120" height="60" as="geometry" />
        </mxCell>
        <mxCell id="o8o4saT7E8EeV9QDNvvc-9" value="" style="edgeStyle=orthogonalEdgeStyle;rounded=0;orthogonalLoop=1;jettySize=auto;html=1;" edge="1" parent="1" source="o8o4saT7E8EeV9QDNvvc-6" target="o8o4saT7E8EeV9QDNvvc-8">
          <mxGeometry relative="1" as="geometry" />
        </mxCell>
        <mxCell id="o8o4saT7E8EeV9QDNvvc-6" value="Extract all the values of the features of the website" style="rounded=1;whiteSpace=wrap;html=1;fillColor=#ffe6cc;strokeColor=#d79b00;" vertex="1" parent="1">
          <mxGeometry x="364" y="-500" width="120" height="60" as="geometry" />
        </mxCell>
        <mxCell id="o8o4saT7E8EeV9QDNvvc-11" value="" style="edgeStyle=orthogonalEdgeStyle;rounded=0;orthogonalLoop=1;jettySize=auto;html=1;" edge="1" parent="1" source="o8o4saT7E8EeV9QDNvvc-8" target="o8o4saT7E8EeV9QDNvvc-10">
          <mxGeometry relative="1" as="geometry" />
        </mxCell>
        <mxCell id="o8o4saT7E8EeV9QDNvvc-8" value="Give these values to the ML model" style="rounded=1;whiteSpace=wrap;html=1;fillColor=#ffe6cc;strokeColor=#d79b00;" vertex="1" parent="1">
          <mxGeometry x="364" y="-420" width="120" height="60" as="geometry" />
        </mxCell>
        <mxCell id="o8o4saT7E8EeV9QDNvvc-13" value="" style="edgeStyle=orthogonalEdgeStyle;rounded=0;orthogonalLoop=1;jettySize=auto;html=1;" edge="1" parent="1" source="o8o4saT7E8EeV9QDNvvc-10" target="o8o4saT7E8EeV9QDNvvc-12">
          <mxGeometry relative="1" as="geometry" />
        </mxCell>
        <mxCell id="o8o4saT7E8EeV9QDNvvc-10" value="Predict the class of the website and print it" style="rounded=1;whiteSpace=wrap;html=1;fillColor=#ffe6cc;strokeColor=#d79b00;" vertex="1" parent="1">
          <mxGeometry x="364.5" y="-320" width="120" height="60" as="geometry" />
        </mxCell>
        <mxCell id="o8o4saT7E8EeV9QDNvvc-12" value="END" style="ellipse;whiteSpace=wrap;html=1;fillColor=#f8cecc;strokeColor=#b85450;" vertex="1" parent="1">
          <mxGeometry x="364" y="-220" width="120" height="80" as="geometry" />
        </mxCell>
        <mxCell id="o8o4saT7E8EeV9QDNvvc-17" value="" style="edgeStyle=orthogonalEdgeStyle;rounded=0;orthogonalLoop=1;jettySize=auto;html=1;" edge="1" parent="1" source="o8o4saT7E8EeV9QDNvvc-14" target="o8o4saT7E8EeV9QDNvvc-4">
          <mxGeometry relative="1" as="geometry" />
        </mxCell>
        <mxCell id="o8o4saT7E8EeV9QDNvvc-18" value="YES" style="edgeLabel;html=1;align=center;verticalAlign=middle;resizable=0;points=[];" vertex="1" connectable="0" parent="o8o4saT7E8EeV9QDNvvc-17">
          <mxGeometry x="-0.3719" y="1" relative="1" as="geometry">
            <mxPoint as="offset" />
          </mxGeometry>
        </mxCell>
        <mxCell id="o8o4saT7E8EeV9QDNvvc-20" value="" style="edgeStyle=orthogonalEdgeStyle;rounded=0;orthogonalLoop=1;jettySize=auto;html=1;" edge="1" parent="1" source="o8o4saT7E8EeV9QDNvvc-14" target="o8o4saT7E8EeV9QDNvvc-19">
          <mxGeometry relative="1" as="geometry" />
        </mxCell>
        <mxCell id="o8o4saT7E8EeV9QDNvvc-21" value="NO" style="edgeLabel;html=1;align=center;verticalAlign=middle;resizable=0;points=[];" vertex="1" connectable="0" parent="o8o4saT7E8EeV9QDNvvc-20">
          <mxGeometry x="-0.1633" y="2" relative="1" as="geometry">
            <mxPoint as="offset" />
          </mxGeometry>
        </mxCell>
        <mxCell id="o8o4saT7E8EeV9QDNvvc-14" value="&lt;b&gt;Is the URL valid?&lt;/b&gt;" style="rhombus;whiteSpace=wrap;html=1;fillColor=#d5e8d4;strokeColor=#82b366;" vertex="1" parent="1">
          <mxGeometry x="377" y="-830" width="95" height="80" as="geometry" />
        </mxCell>
        <mxCell id="o8o4saT7E8EeV9QDNvvc-23" value="" style="edgeStyle=orthogonalEdgeStyle;rounded=0;orthogonalLoop=1;jettySize=auto;html=1;" edge="1" parent="1" source="o8o4saT7E8EeV9QDNvvc-19" target="o8o4saT7E8EeV9QDNvvc-22">
          <mxGeometry relative="1" as="geometry" />
        </mxCell>
        <mxCell id="o8o4saT7E8EeV9QDNvvc-19" value="Print that the URL is not valid" style="whiteSpace=wrap;html=1;aspect=fixed;fillColor=#dae8fc;strokeColor=#6c8ebf;" vertex="1" parent="1">
          <mxGeometry x="199" y="-830" width="80" height="80" as="geometry" />
        </mxCell>
        <mxCell id="o8o4saT7E8EeV9QDNvvc-24" value="" style="edgeStyle=orthogonalEdgeStyle;rounded=0;orthogonalLoop=1;jettySize=auto;html=1;" edge="1" parent="1" source="o8o4saT7E8EeV9QDNvvc-22" target="o8o4saT7E8EeV9QDNvvc-12">
          <mxGeometry relative="1" as="geometry">
            <Array as="points">
              <mxPoint x="239" y="-180" />
            </Array>
          </mxGeometry>
        </mxCell>
        <mxCell id="o8o4saT7E8EeV9QDNvvc-22" value="" style="shape=waypoint;sketch=0;size=6;pointerEvents=1;points=[];fillColor=#dae8fc;resizable=0;rotatable=0;perimeter=centerPerimeter;snapToPoint=1;strokeColor=#6c8ebf;" vertex="1" parent="1">
          <mxGeometry x="229" y="-250" width="20" height="20" as="geometry" />
        </mxCell>
        <mxCell id="o8o4saT7E8EeV9QDNvvc-27" value="" style="edgeStyle=orthogonalEdgeStyle;rounded=0;orthogonalLoop=1;jettySize=auto;html=1;" edge="1" parent="1" source="o8o4saT7E8EeV9QDNvvc-25" target="o8o4saT7E8EeV9QDNvvc-6">
          <mxGeometry relative="1" as="geometry" />
        </mxCell>
        <mxCell id="o8o4saT7E8EeV9QDNvvc-28" value="Yes" style="edgeLabel;html=1;align=center;verticalAlign=middle;resizable=0;points=[];" vertex="1" connectable="0" parent="o8o4saT7E8EeV9QDNvvc-27">
          <mxGeometry x="-0.1" y="-1" relative="1" as="geometry">
            <mxPoint as="offset" />
          </mxGeometry>
        </mxCell>
        <mxCell id="o8o4saT7E8EeV9QDNvvc-30" value="" style="edgeStyle=orthogonalEdgeStyle;rounded=0;orthogonalLoop=1;jettySize=auto;html=1;" edge="1" parent="1" source="o8o4saT7E8EeV9QDNvvc-25" target="o8o4saT7E8EeV9QDNvvc-29">
          <mxGeometry relative="1" as="geometry" />
        </mxCell>
        <mxCell id="o8o4saT7E8EeV9QDNvvc-25" value="&lt;b&gt;Is the website active?&lt;/b&gt;" style="rhombus;whiteSpace=wrap;html=1;fillColor=#d5e8d4;strokeColor=#82b366;" vertex="1" parent="1">
          <mxGeometry x="384" y="-620" width="80" height="80" as="geometry" />
        </mxCell>
        <mxCell id="o8o4saT7E8EeV9QDNvvc-32" value="" style="edgeStyle=orthogonalEdgeStyle;rounded=0;orthogonalLoop=1;jettySize=auto;html=1;" edge="1" parent="1" source="o8o4saT7E8EeV9QDNvvc-29" target="o8o4saT7E8EeV9QDNvvc-31">
          <mxGeometry relative="1" as="geometry" />
        </mxCell>
        <mxCell id="o8o4saT7E8EeV9QDNvvc-29" value="Print that the website is not active" style="whiteSpace=wrap;html=1;aspect=fixed;fillColor=#dae8fc;strokeColor=#6c8ebf;" vertex="1" parent="1">
          <mxGeometry x="549" y="-620" width="80" height="80" as="geometry" />
        </mxCell>
        <mxCell id="o8o4saT7E8EeV9QDNvvc-33" value="" style="edgeStyle=orthogonalEdgeStyle;rounded=0;orthogonalLoop=1;jettySize=auto;html=1;" edge="1" parent="1" source="o8o4saT7E8EeV9QDNvvc-31" target="o8o4saT7E8EeV9QDNvvc-12">
          <mxGeometry relative="1" as="geometry" />
        </mxCell>
        <mxCell id="o8o4saT7E8EeV9QDNvvc-31" value="" style="shape=waypoint;sketch=0;size=6;pointerEvents=1;points=[];fillColor=#dae8fc;resizable=0;rotatable=0;perimeter=centerPerimeter;snapToPoint=1;strokeColor=#6c8ebf;" vertex="1" parent="1">
          <mxGeometry x="579" y="-190" width="20" height="20" as="geometry" />
        </mxCell>
      </root>
    </mxGraphModel>
  </diagram>
</mxfile>
